<mxfile host="app.diagrams.net" modified="2021-03-26T11:48:58.358Z" agent="5.0 (Macintosh; Intel Mac OS X 10_15_7) AppleWebKit/537.36 (KHTML, like Gecko) Chrome/89.0.4389.90 Safari/537.36" etag="zhK2ZxAU-Qjb0l5frW_d" version="14.5.1" type="github">
  <diagram id="XsSQIG7wT9FtxBwQ5gVq" name="Page-1">
    <mxGraphModel dx="1271" dy="891" grid="1" gridSize="10" guides="1" tooltips="1" connect="1" arrows="1" fold="1" page="1" pageScale="1" pageWidth="827" pageHeight="1169" math="0" shadow="0">
      <root>
        <mxCell id="0" />
        <mxCell id="1" parent="0" />
        <mxCell id="kuFd8Fj1izx9sE_3Z7Ty-25" value="" style="group" vertex="1" connectable="0" parent="1">
          <mxGeometry x="19" y="100" width="791" height="900" as="geometry" />
        </mxCell>
        <mxCell id="kuFd8Fj1izx9sE_3Z7Ty-8" value="" style="group" vertex="1" connectable="0" parent="kuFd8Fj1izx9sE_3Z7Ty-25">
          <mxGeometry width="791" height="280" as="geometry" />
        </mxCell>
        <mxCell id="kuFd8Fj1izx9sE_3Z7Ty-1" value="" style="rounded=0;whiteSpace=wrap;html=1;" vertex="1" parent="kuFd8Fj1izx9sE_3Z7Ty-8">
          <mxGeometry width="768.7183098591549" height="280" as="geometry" />
        </mxCell>
        <mxCell id="kuFd8Fj1izx9sE_3Z7Ty-2" value="Some quick example text to build on the card title and make up the bulk of the card&#39;s content." style="html=1;shadow=0;dashed=0;shape=mxgraph.bootstrap.rrect;rSize=5;strokeColor=#DFDFDF;html=1;whiteSpace=wrap;fillColor=#ffffff;fontColor=#000000;verticalAlign=bottom;align=left;spacing=20;fontSize=14;" vertex="1" parent="kuFd8Fj1izx9sE_3Z7Ty-8">
          <mxGeometry x="11.140845070422536" y="10" width="245.0985915492958" height="260" as="geometry" />
        </mxCell>
        <mxCell id="kuFd8Fj1izx9sE_3Z7Ty-3" value="Image cap" style="html=1;shadow=0;dashed=0;shape=mxgraph.bootstrap.topButton;rSize=5;perimeter=none;whiteSpace=wrap;fillColor=#868E96;strokeColor=#DFDFDF;fontColor=#DEE2E6;resizeWidth=1;fontSize=18;" vertex="1" parent="kuFd8Fj1izx9sE_3Z7Ty-2">
          <mxGeometry width="245.0985915492958" height="180" relative="1" as="geometry" />
        </mxCell>
        <mxCell id="kuFd8Fj1izx9sE_3Z7Ty-4" value="Some quick example text to build on the card title and make up the bulk of the card&#39;s content." style="html=1;shadow=0;dashed=0;shape=mxgraph.bootstrap.rrect;rSize=5;strokeColor=#DFDFDF;html=1;whiteSpace=wrap;fillColor=#ffffff;fontColor=#000000;verticalAlign=bottom;align=left;spacing=20;fontSize=14;" vertex="1" parent="kuFd8Fj1izx9sE_3Z7Ty-8">
          <mxGeometry x="278.5211267605634" y="10" width="245.0985915492958" height="260" as="geometry" />
        </mxCell>
        <mxCell id="kuFd8Fj1izx9sE_3Z7Ty-5" value="Image cap" style="html=1;shadow=0;dashed=0;shape=mxgraph.bootstrap.topButton;rSize=5;perimeter=none;whiteSpace=wrap;fillColor=#868E96;strokeColor=#DFDFDF;fontColor=#DEE2E6;resizeWidth=1;fontSize=18;" vertex="1" parent="kuFd8Fj1izx9sE_3Z7Ty-4">
          <mxGeometry width="245.0985915492958" height="180" relative="1" as="geometry" />
        </mxCell>
        <mxCell id="kuFd8Fj1izx9sE_3Z7Ty-6" value="Some quick example text to build on the card title and make up the bulk of the card&#39;s content." style="html=1;shadow=0;dashed=0;shape=mxgraph.bootstrap.rrect;rSize=5;strokeColor=#DFDFDF;html=1;whiteSpace=wrap;fillColor=#ffffff;fontColor=#000000;verticalAlign=bottom;align=left;spacing=20;fontSize=14;" vertex="1" parent="kuFd8Fj1izx9sE_3Z7Ty-8">
          <mxGeometry x="545.9014084507043" y="10" width="245.0985915492958" height="260" as="geometry" />
        </mxCell>
        <mxCell id="kuFd8Fj1izx9sE_3Z7Ty-7" value="Image cap" style="html=1;shadow=0;dashed=0;shape=mxgraph.bootstrap.topButton;rSize=5;perimeter=none;whiteSpace=wrap;fillColor=#868E96;strokeColor=#DFDFDF;fontColor=#DEE2E6;resizeWidth=1;fontSize=18;" vertex="1" parent="kuFd8Fj1izx9sE_3Z7Ty-6">
          <mxGeometry width="245.0985915492958" height="180" relative="1" as="geometry" />
        </mxCell>
        <mxCell id="kuFd8Fj1izx9sE_3Z7Ty-9" value="" style="group" vertex="1" connectable="0" parent="kuFd8Fj1izx9sE_3Z7Ty-25">
          <mxGeometry y="310" width="791" height="280" as="geometry" />
        </mxCell>
        <mxCell id="kuFd8Fj1izx9sE_3Z7Ty-10" value="" style="rounded=0;whiteSpace=wrap;html=1;" vertex="1" parent="kuFd8Fj1izx9sE_3Z7Ty-9">
          <mxGeometry width="768.7183098591549" height="280" as="geometry" />
        </mxCell>
        <mxCell id="kuFd8Fj1izx9sE_3Z7Ty-11" value="Some quick example text to build on the card title and make up the bulk of the card&#39;s content." style="html=1;shadow=0;dashed=0;shape=mxgraph.bootstrap.rrect;rSize=5;strokeColor=#DFDFDF;html=1;whiteSpace=wrap;fillColor=#ffffff;fontColor=#000000;verticalAlign=bottom;align=left;spacing=20;fontSize=14;" vertex="1" parent="kuFd8Fj1izx9sE_3Z7Ty-9">
          <mxGeometry x="11.140845070422536" y="10" width="245.0985915492958" height="260" as="geometry" />
        </mxCell>
        <mxCell id="kuFd8Fj1izx9sE_3Z7Ty-12" value="Image cap" style="html=1;shadow=0;dashed=0;shape=mxgraph.bootstrap.topButton;rSize=5;perimeter=none;whiteSpace=wrap;fillColor=#868E96;strokeColor=#DFDFDF;fontColor=#DEE2E6;resizeWidth=1;fontSize=18;" vertex="1" parent="kuFd8Fj1izx9sE_3Z7Ty-11">
          <mxGeometry width="245.0985915492958" height="180" relative="1" as="geometry" />
        </mxCell>
        <mxCell id="kuFd8Fj1izx9sE_3Z7Ty-13" value="Some quick example text to build on the card title and make up the bulk of the card&#39;s content." style="html=1;shadow=0;dashed=0;shape=mxgraph.bootstrap.rrect;rSize=5;strokeColor=#DFDFDF;html=1;whiteSpace=wrap;fillColor=#ffffff;fontColor=#000000;verticalAlign=bottom;align=left;spacing=20;fontSize=14;" vertex="1" parent="kuFd8Fj1izx9sE_3Z7Ty-9">
          <mxGeometry x="278.5211267605634" y="10" width="245.0985915492958" height="260" as="geometry" />
        </mxCell>
        <mxCell id="kuFd8Fj1izx9sE_3Z7Ty-14" value="Image cap" style="html=1;shadow=0;dashed=0;shape=mxgraph.bootstrap.topButton;rSize=5;perimeter=none;whiteSpace=wrap;fillColor=#868E96;strokeColor=#DFDFDF;fontColor=#DEE2E6;resizeWidth=1;fontSize=18;" vertex="1" parent="kuFd8Fj1izx9sE_3Z7Ty-13">
          <mxGeometry width="245.0985915492958" height="180" relative="1" as="geometry" />
        </mxCell>
        <mxCell id="kuFd8Fj1izx9sE_3Z7Ty-15" value="Some quick example text to build on the card title and make up the bulk of the card&#39;s content." style="html=1;shadow=0;dashed=0;shape=mxgraph.bootstrap.rrect;rSize=5;strokeColor=#DFDFDF;html=1;whiteSpace=wrap;fillColor=#ffffff;fontColor=#000000;verticalAlign=bottom;align=left;spacing=20;fontSize=14;" vertex="1" parent="kuFd8Fj1izx9sE_3Z7Ty-9">
          <mxGeometry x="545.9014084507043" y="10" width="245.0985915492958" height="260" as="geometry" />
        </mxCell>
        <mxCell id="kuFd8Fj1izx9sE_3Z7Ty-16" value="Image cap" style="html=1;shadow=0;dashed=0;shape=mxgraph.bootstrap.topButton;rSize=5;perimeter=none;whiteSpace=wrap;fillColor=#868E96;strokeColor=#DFDFDF;fontColor=#DEE2E6;resizeWidth=1;fontSize=18;" vertex="1" parent="kuFd8Fj1izx9sE_3Z7Ty-15">
          <mxGeometry width="245.0985915492958" height="180" relative="1" as="geometry" />
        </mxCell>
        <mxCell id="kuFd8Fj1izx9sE_3Z7Ty-17" value="" style="group" vertex="1" connectable="0" parent="kuFd8Fj1izx9sE_3Z7Ty-25">
          <mxGeometry y="620" width="791" height="280" as="geometry" />
        </mxCell>
        <mxCell id="kuFd8Fj1izx9sE_3Z7Ty-18" value="" style="rounded=0;whiteSpace=wrap;html=1;" vertex="1" parent="kuFd8Fj1izx9sE_3Z7Ty-17">
          <mxGeometry width="768.7183098591549" height="280" as="geometry" />
        </mxCell>
        <mxCell id="kuFd8Fj1izx9sE_3Z7Ty-19" value="Some quick example text to build on the card title and make up the bulk of the card&#39;s content." style="html=1;shadow=0;dashed=0;shape=mxgraph.bootstrap.rrect;rSize=5;strokeColor=#DFDFDF;html=1;whiteSpace=wrap;fillColor=#ffffff;fontColor=#000000;verticalAlign=bottom;align=left;spacing=20;fontSize=14;" vertex="1" parent="kuFd8Fj1izx9sE_3Z7Ty-17">
          <mxGeometry x="11.140845070422536" y="10" width="245.0985915492958" height="260" as="geometry" />
        </mxCell>
        <mxCell id="kuFd8Fj1izx9sE_3Z7Ty-20" value="Image cap" style="html=1;shadow=0;dashed=0;shape=mxgraph.bootstrap.topButton;rSize=5;perimeter=none;whiteSpace=wrap;fillColor=#868E96;strokeColor=#DFDFDF;fontColor=#DEE2E6;resizeWidth=1;fontSize=18;" vertex="1" parent="kuFd8Fj1izx9sE_3Z7Ty-19">
          <mxGeometry width="245.0985915492958" height="180" relative="1" as="geometry" />
        </mxCell>
        <mxCell id="kuFd8Fj1izx9sE_3Z7Ty-21" value="Some quick example text to build on the card title and make up the bulk of the card&#39;s content." style="html=1;shadow=0;dashed=0;shape=mxgraph.bootstrap.rrect;rSize=5;strokeColor=#DFDFDF;html=1;whiteSpace=wrap;fillColor=#ffffff;fontColor=#000000;verticalAlign=bottom;align=left;spacing=20;fontSize=14;" vertex="1" parent="kuFd8Fj1izx9sE_3Z7Ty-17">
          <mxGeometry x="278.5211267605634" y="10" width="245.0985915492958" height="260" as="geometry" />
        </mxCell>
        <mxCell id="kuFd8Fj1izx9sE_3Z7Ty-22" value="Image cap" style="html=1;shadow=0;dashed=0;shape=mxgraph.bootstrap.topButton;rSize=5;perimeter=none;whiteSpace=wrap;fillColor=#868E96;strokeColor=#DFDFDF;fontColor=#DEE2E6;resizeWidth=1;fontSize=18;" vertex="1" parent="kuFd8Fj1izx9sE_3Z7Ty-21">
          <mxGeometry width="245.0985915492958" height="180" relative="1" as="geometry" />
        </mxCell>
        <mxCell id="kuFd8Fj1izx9sE_3Z7Ty-23" value="Some quick example text to build on the card title and make up the bulk of the card&#39;s content." style="html=1;shadow=0;dashed=0;shape=mxgraph.bootstrap.rrect;rSize=5;strokeColor=#DFDFDF;html=1;whiteSpace=wrap;fillColor=#ffffff;fontColor=#000000;verticalAlign=bottom;align=left;spacing=20;fontSize=14;" vertex="1" parent="kuFd8Fj1izx9sE_3Z7Ty-17">
          <mxGeometry x="545.9014084507043" y="10" width="245.0985915492958" height="260" as="geometry" />
        </mxCell>
        <mxCell id="kuFd8Fj1izx9sE_3Z7Ty-24" value="Image cap" style="html=1;shadow=0;dashed=0;shape=mxgraph.bootstrap.topButton;rSize=5;perimeter=none;whiteSpace=wrap;fillColor=#868E96;strokeColor=#DFDFDF;fontColor=#DEE2E6;resizeWidth=1;fontSize=18;" vertex="1" parent="kuFd8Fj1izx9sE_3Z7Ty-23">
          <mxGeometry width="245.0985915492958" height="180" relative="1" as="geometry" />
        </mxCell>
        <mxCell id="kuFd8Fj1izx9sE_3Z7Ty-26" value="Navbar" style="html=1;shadow=0;dashed=0;fillColor=#0085FC;strokeColor=none;fontSize=16;fontColor=#ffffff;align=left;spacing=15;" vertex="1" parent="1">
          <mxGeometry x="19" y="20" width="800" height="60" as="geometry" />
        </mxCell>
        <mxCell id="kuFd8Fj1izx9sE_3Z7Ty-27" value="Home" style="fillColor=none;strokeColor=none;fontSize=14;fontColor=#ffffff;align=center;" vertex="1" parent="kuFd8Fj1izx9sE_3Z7Ty-26">
          <mxGeometry width="70" height="40" relative="1" as="geometry">
            <mxPoint x="70" y="10" as="offset" />
          </mxGeometry>
        </mxCell>
        <mxCell id="kuFd8Fj1izx9sE_3Z7Ty-28" value="Features" style="fillColor=none;strokeColor=none;fontSize=14;fontColor=#79BFFD;align=center;" vertex="1" parent="kuFd8Fj1izx9sE_3Z7Ty-26">
          <mxGeometry width="70" height="40" relative="1" as="geometry">
            <mxPoint x="140" y="10" as="offset" />
          </mxGeometry>
        </mxCell>
        <mxCell id="kuFd8Fj1izx9sE_3Z7Ty-29" value="Pricing" style="fillColor=none;strokeColor=none;fontSize=14;fontColor=#79BFFD;align=center;spacingRight=0;" vertex="1" parent="kuFd8Fj1izx9sE_3Z7Ty-26">
          <mxGeometry width="80" height="40" relative="1" as="geometry">
            <mxPoint x="210" y="10" as="offset" />
          </mxGeometry>
        </mxCell>
        <mxCell id="kuFd8Fj1izx9sE_3Z7Ty-30" value="About" style="fillColor=none;strokeColor=none;fontSize=14;fontColor=#79BFFD;align=center;" vertex="1" parent="kuFd8Fj1izx9sE_3Z7Ty-26">
          <mxGeometry width="80" height="40" relative="1" as="geometry">
            <mxPoint x="290" y="10" as="offset" />
          </mxGeometry>
        </mxCell>
        <mxCell id="kuFd8Fj1izx9sE_3Z7Ty-31" value="Search" style="html=1;shadow=0;dashed=0;shape=mxgraph.bootstrap.rrect;rSize=5;fontSize=14;fontColor=#ffffff;strokeColor=#ffffff;fillColor=none;" vertex="1" parent="kuFd8Fj1izx9sE_3Z7Ty-26">
          <mxGeometry x="1" width="70" height="40" relative="1" as="geometry">
            <mxPoint x="-80" y="10" as="offset" />
          </mxGeometry>
        </mxCell>
        <mxCell id="kuFd8Fj1izx9sE_3Z7Ty-32" value="Search" style="html=1;shadow=0;dashed=0;shape=mxgraph.bootstrap.rrect;rSize=5;fontSize=14;fontColor=#6C767D;strokeColor=#CED4DA;fillColor=#ffffff;align=left;spacing=10;" vertex="1" parent="kuFd8Fj1izx9sE_3Z7Ty-26">
          <mxGeometry x="1" width="180" height="40" relative="1" as="geometry">
            <mxPoint x="-270" y="10" as="offset" />
          </mxGeometry>
        </mxCell>
      </root>
    </mxGraphModel>
  </diagram>
</mxfile>
